<?xml version="1.0" encoding="UTF-8"?>
<svg xmlns="http://www.w3.org/2000/svg" width="31" height="31">
    <title>fishing</title>
    <g fill="none" fill-rule="nonzero">
        <g id="Vessel-Profile" transform="translate(-964.000000, -409.000000)" fill-rule="nonzero">
            <g id="map" transform="translate(320.000000, 0.000000)">
                <g id="fishing" transform="translate(644.000000, 409.000000)">
                    <path d="M15.5,0 L15.5,0 C24.0604136,-1.57252247e-15 31,6.93958638 31,15.5 L31,15.5 C31,24.0604136 24.0604136,31 15.5,31 L15.5,31 C6.93958638,31 1.04834831e-15,24.0604136 0,15.5 L0,15.5 C-1.04834831e-15,6.93958638 6.93958638,1.57252247e-15 15.5,0 Z" id="Rectangle-13" fill="#FFFFFF"></path>       
                    <path fill="#22447E" fill-opacity=".1" d="M15.5 0a15.5 15.5 0 0 1 0 31 15.5 15.5 0 0 1 0-31z"/>
                    <g id="fishing" transform="scale(0.85, 0.85) translate(2.8, 2.8)">
                        <g stroke="#061B52" stroke-width="1.4" transform="rotate(45 3.55 20.45)">
                            <circle cx="1.5" cy="8.5" r="1.5"/>
                            <circle cx="8.5" cy="8.5" r="1.5"/>
                            <circle cx="1.5" cy="15.5" r="1.5"/>
                            <circle cx="8.5" cy="15.5" r="1.5"/>
                            <circle cx="1.5" cy="1.5" r="1.5"/>
                            <circle cx="8.5" cy="1.5" r="1.5"/>
                            <path stroke-linecap="square" d="M1.5 10v3.5M8.5 10v3.5M1.5 3v3.5M8.5 3v3.5"/>
                            <circle cx="15.5" cy="8.5" r="1.5"/>
                            <circle cx="15.5" cy="15.5" r="1.5"/>
                            <circle cx="15.5" cy="1.5" r="1.5"/>
                            <path stroke-linecap="square" d="M15.5 10v3.5M15.5 3v3.5M6 1.5H3M13 1.5h-3M6 8.5H3M13 8.5h-3M6 15.5H3M13 15.5h-3"/>
                        </g>
                    </g>
                </g>
            </g>
        </g>
    </g>
</svg>
