<?xml version="1.0" encoding="UTF-8"?>
<svg width="31px" height="31px" viewBox="0 0 31 31" version="1.1" xmlns="http://www.w3.org/2000/svg" xmlns:xlink="http://www.w3.org/1999/xlink">
    <!-- Generator: Sketch 53.2 (72643) - https://sketchapp.com -->
    <!-- #ddbef0 -->
    <title>loitering</title>
    <desc>Created with Sketch.</desc>
    <g id="desktop" stroke="none" stroke-width="1" fill="none" fill-rule="evenodd">
        <g id="Vessel-Profile" transform="translate(-506.000000, -271.000000)" fill-rule="nonzero">
            <g id="map" transform="translate(320.000000, 0.000000)">
                <g id="loitering" transform="translate(186.000000, 271.000000)">
                    <path d="M15.5,0 L15.5,0 C24.0604136,-1.57252247e-15 31,6.93958638 31,15.5 L31,15.5 C31,24.0604136 24.0604136,31 15.5,31 L15.5,31 C6.93958638,31 1.04834831e-15,24.0604136 0,15.5 L0,15.5 C-1.04834831e-15,6.93958638 6.93958638,1.57252247e-15 15.5,0 Z" id="Rectangle-13" fill="#cfa9f9"></path>
                    <path fill="#061B52" d="M6.8 1.5v.72a6.3 6.3 0 1 1-5.606 2.588l-.197-.197A1 1 0 1 1 2.41 3.197l.197.197A6.266 6.266 0 0 1 5.8 2.22V1.5h-.75a.75.75 0 0 1 0-1.5h2.5a.75.75 0 0 1 0 1.5H6.8zm-.5 12a5 5 0 1 0 0-10 5 5 0 0 0 0 10zm0-1a3.987 3.987 0 0 1-2.828-1.172L6.3 8.5v-4a4 4 0 1 1 0 8z" transform="scale(1, 1) translate(9, 8)"/>
                </g>
            </g>
        </g>
    </g>
</svg>