<?xml version="1.0" encoding="UTF-8"?>
<svg width="33px" height="33px" viewBox="0 0 33 33" version="1.1" xmlns="http://www.w3.org/2000/svg" xmlns:xlink="http://www.w3.org/1999/xlink">
    <!-- Generator: Sketch 53.2 (72643) - https://sketchapp.com -->
    <title>encounter copy</title>
    <desc>Created with Sketch.</desc>
    <g id="desktop" stroke="none" stroke-width="1" fill="none" fill-rule="evenodd">
        <g id="Vessel-Profile" transform="translate(-851.000000, -546.000000)" fill-rule="nonzero">
            <g id="map" transform="translate(320.000000, 0.000000)">
                <g id="encounter-copy" transform="translate(532.000000, 547.000000)">
                    <path d="M15.5,0 L15.5,0 C24.0604136,-1.57252247e-15 31,6.93958638 31,15.5 L31,15.5 C31,24.0604136 24.0604136,31 15.5,31 L15.5,31 C6.93958638,31 1.04834831e-15,24.0604136 0,15.5 L0,15.5 C-1.04834831e-15,6.93958638 6.93958638,1.57252247e-15 15.5,0 Z" id="Rectangle-13-Copy-3" stroke="#FFFFFF" stroke-width="2" fill="#9A84ED"></path>
                    <path d="M15.65625,19.6875 C16.932298,19.6875 18.0130164,19.2447961 18.8984375,18.359375 C19.7838586,17.4739539 20.2265625,16.3997459 20.2265625,15.1367188 C20.2265625,13.8736916 19.7838586,12.7994836 18.8984375,11.9140625 C18.0130164,11.0286414 16.9388084,10.5859375 15.6757812,10.5859375 C14.4127541,10.5859375 13.3385461,11.0286414 12.453125,11.9140625 C11.5677039,12.7994836 11.125,13.8736916 11.125,15.1367188 C11.125,16.3997459 11.5677039,17.4739539 12.453125,18.359375 C13.3385461,19.2447961 14.4062437,19.6875 15.65625,19.6875 Z M15.65625,9.296875 C17.2708414,9.296875 18.6510359,9.86978594 19.796875,11.015625 C20.9427141,12.1614641 21.515625,13.5416586 21.515625,15.15625 C21.515625,16.7708414 20.9427141,18.1380152 19.796875,19.2578125 C18.6510359,20.3776098 17.2708414,20.9375 15.65625,20.9375 C14.0416586,20.9375 12.6744848,20.3776098 11.5546875,19.2578125 C10.4348902,18.1380152 9.875,16.7708414 9.875,15.15625 C9.875,13.5416586 10.4348902,12.1614641 11.5546875,11.015625 C12.6744848,9.86978594 14.0416586,9.296875 15.65625,9.296875 Z M9.015625,11.796875 L9.015625,8.4765625 L12.3359375,8.4765625 L9.015625,11.796875 Z M12.3359375,21.796875 L9.015625,21.796875 L9.015625,18.4765625 L12.3359375,21.796875 Z M22.3359375,18.4765625 L22.3359375,21.796875 L19.015625,21.796875 L22.3359375,18.4765625 Z M19.015625,8.4765625 L22.3359375,8.4765625 L22.3359375,11.796875 L19.015625,8.4765625 Z" id="a" fill="#061B52"></path>
                </g>
            </g>
        </g>
    </g>
</svg>