<?xml version="1.0" encoding="UTF-8"?>
<svg width="31px" height="31px" viewBox="0 0 31 31" version="1.1" xmlns="http://www.w3.org/2000/svg" xmlns:xlink="http://www.w3.org/1999/xlink">
    <!-- Generator: Sketch 53.2 (72643) - https://sketchapp.com -->
    <title>encounter copy 2</title>
    <desc>Created with Sketch.</desc>
    <g id="desktop" stroke="none" stroke-width="1" fill="none" fill-rule="evenodd">
        <g id="Vessel-Profile" transform="translate(-506.000000, -271.000000)" fill-rule="nonzero">
            <g id="map" transform="translate(320.000000, 0.000000)">
                <g id="encounter-copy-2" transform="translate(186.000000, 271.000000)">
                    <path d="M15.5,0 L15.5,0 C24.0604136,-1.57252247e-15 31,6.93958638 31,15.5 L31,15.5 C31,24.0604136 24.0604136,31 15.5,31 L15.5,31 C6.93958638,31 1.04834831e-15,24.0604136 0,15.5 L0,15.5 C-1.04834831e-15,6.93958638 6.93958638,1.57252247e-15 15.5,0 Z" id="Rectangle-13" fill="#FFE7A0"></path>
                    <path d="M18.6992188,19.1484375 L11.3515625,11.8007812 C10.6249964,12.7617236 10.2617188,13.8281191 10.2617188,15 C10.2617188,16.4531323 10.7714793,17.689448 11.7910156,18.7089844 C12.810552,19.7285207 14.0468677,20.2382812 15.5,20.2382812 C16.6718809,20.2382812 17.7382764,19.8750036 18.6992188,19.1484375 Z M8.75,9.19921875 L9.69921875,8.25 L22.25,20.8007812 L21.3007812,21.75 L19.7539062,20.203125 C18.6992135,21.0703168 17.5273502,21.574218 16.2382812,21.7148438 L16.2382812,23.2617188 L14.7617188,23.2617188 L14.7617188,21.7148438 C13.1913984,21.5507804 11.8437556,20.9062556 10.71875,19.78125 C9.59374437,18.6562444 8.94921957,17.3086016 8.78515625,15.7382812 L7.23828125,15.7382812 L7.23828125,14.2617188 L8.78515625,14.2617188 C8.92578195,12.9726498 9.42968316,11.8007865 10.296875,10.7460938 L8.75,9.19921875 Z M22.2148438,14.2617188 L23.7617188,14.2617188 L23.7617188,15.7382812 L22.2148438,15.7382812 C22.0976557,16.6523483 21.8515644,17.4492154 21.4765625,18.1289062 L20.3515625,17.0039062 C20.6093763,16.3710906 20.7382812,15.7031285 20.7382812,15 C20.7382812,13.5468677 20.2285207,12.310552 19.2089844,11.2910156 C18.189448,10.2714793 16.9531323,9.76171875 15.5,9.76171875 C14.7968715,9.76171875 14.1289094,9.89062371 13.4960938,10.1484375 L12.3710938,9.0234375 C13.0976599,8.64843563 13.8945269,8.40234434 14.7617188,8.28515625 L14.7617188,6.73828125 L16.2382812,6.73828125 L16.2382812,8.28515625 C17.8086016,8.44921957 19.1562444,9.09374437 20.28125,10.21875 C21.4062556,11.3437556 22.0507804,12.6913984 22.2148438,14.2617188 Z" id="g" fill="#061B52"></path>
                </g>
            </g>
        </g>
    </g>
</svg>