<?xml version="1.0" encoding="UTF-8"?>
<svg width="32px" height="23px" viewBox="0 0 32 23" version="1.1" xmlns="http://www.w3.org/2000/svg" xmlns:xlink="http://www.w3.org/1999/xlink">
    <title>transmissions-on@2x</title>
    <g id="Page-1" stroke="none" stroke-width="1" fill="none" fill-rule="evenodd">
        <g id="transmissions-on" transform="translate(0.000000, 0.400000)" fill="#163F89" fill-rule="nonzero">
            <path d="M16,12.9910225 C18.260223,12.9910225 20.3816605,13.8189964 22.0074349,15.3172043 L22.3246592,15.6326165 L16,22 L9.65551425,15.6326165 C11.326427,13.9387351 13.6137425,12.9863931 16,12.9910225 Z M16,6.50537634 C20.0446097,6.50537634 23.8513011,8.06272401 26.7459727,10.7634409 L27.1623296,11.1577061 L24.9021066,13.4050179 C20.1765639,8.61615893 12.4745067,8.44131737 7.53407683,13.0107527 L7.09789343,13.4050179 L4.83767038,11.1774194 C7.77660684,8.19305206 11.7992367,6.50936231 16,6.50537634 Z M16,0 C21.7802599,0.00374250745 27.3353889,2.22863989 31.5043371,6.20967742 L32,6.6827957 L29.739777,8.93010753 C22.375102,1.4501716 10.330534,1.24808606 2.71623296,8.47670251 L2.26022305,8.93010753 L0,6.6827957 C4.21379526,2.40842173 9.98029249,-9.84528313e-05 16,0 Z" id="Shape"></path>
        </g>
    </g>
</svg>