<?xml version="1.0" encoding="UTF-8"?>
<svg width="32px" height="23px" viewBox="0 0 32 23" version="1.1" xmlns="http://www.w3.org/2000/svg" xmlns:xlink="http://www.w3.org/1999/xlink">
    <title>transmissions-off@2x</title>
    <g id="Page-1" stroke="none" stroke-width="1" fill="none" fill-rule="evenodd">
        <g id="transmissions-off" fill="#163F89" fill-rule="nonzero">
            <path d="M13.0955092,14.7717206 L18.8032891,20.2964225 L16.0101202,23 L9.6344086,16.8483816 C10.6029311,15.9114685 11.7798412,15.2011684 13.0752688,14.7717206 L13.0955092,14.7717206 Z M4.99936749,0 L25.9076534,20.2572402 L23.7621758,22.3339012 L2.83364959,2.07666099 L4.99936749,0 Z M19.8962682,11.6567291 L16.2530044,8.13032368 L15.9898798,8.13032368 C20.0379507,8.13032368 23.8026565,9.59965928 26.6970272,12.1856899 L27.142315,12.5971039 L24.9968374,14.6737649 C23.5690877,13.289334 21.8203924,12.254964 19.8962682,11.6567291 L19.8962682,11.6567291 Z M8.25806452,10.0894378 L10.5047438,12.2640545 C9.39152435,12.7930153 8.35926629,13.4591141 7.42820999,14.2819421 L7.02340291,14.6737649 L4.85768501,12.5971039 C5.8684419,11.615859 7.01238623,10.7722383 8.25806452,10.0894378 L8.25806452,10.0894378 Z M15.9898798,1.86115843 C21.8595825,1.86115843 27.3244782,4.01618399 31.5142315,7.81686542 L32,8.26746167 L29.8545225,10.3441227 C25.450461,6.06735041 19.1990899,4.08680506 13.0347881,5.0153322 L10.4642631,2.52725724 C12.2454143,2.09625213 14.1075269,1.86115843 15.9898798,1.86115843 L15.9898798,1.86115843 Z M3.50158128,5.48551959 L5.72802024,7.620954 C4.6127186,8.2825915 3.5685248,9.05046183 2.61100569,9.91311755 L2.14547755,10.3441227 L0,8.26746167 C1.07273877,7.22913118 2.24667932,6.30834753 3.50158128,5.48551959 L3.50158128,5.48551959 Z" id="Shape"></path>
        </g>
    </g>
</svg>